<?xml version="1.0" encoding="utf-8"?>
<!-- Generator: Adobe Illustrator 26.4.1, SVG Export Plug-In . SVG Version: 6.00 Build 0)  -->
<svg version="1.1" id="logo" xmlns="http://www.w3.org/2000/svg" xmlns:xlink="http://www.w3.org/1999/xlink" x="0px" y="0px"
	 viewBox="0 0 515 112" style="enable-background:new 0 0 515 112;" xml:space="preserve">
<style type="text/css">
	.st0{fill:#FFFFFF;}
</style>
<g>
	<path class="st0" d="M114,84.7c0,16.7,14.4,23.8,28.6,23.8c11.5,0,21.1-4.4,26.1-12.3h1l1.9,10.7h13.6V61.2
		c0-17.8-13.2-25.9-31.6-25.9h-30.3v15.3h31.3c8.8,0,13.8,3.7,13.8,11.5h-25.7C125.6,62.2,114,69.5,114,84.7 M168.2,76.8
		c0,9.2-9.4,16.9-23.4,16.9c-9.2,0-14-3.7-14-9.2c0-5.9,4.6-8.8,11.5-8.8h25.9L168.2,76.8L168.2,76.8z"/>
	<rect x="86" y="7.9" class="st0" width="17.3" height="99"/>
	<path class="st0" d="M214.2,65.3c0-9.2,5.2-14.6,14.8-14.6h14.4V35.3h-14c-9.4,0-13,2.9-15.9,10.7h-1l-1.9-10.7H197v71.5h17.3V65.3
		z"/>
	<path class="st0" d="M323.8,69.1c0-19.7-15-35.3-39.1-35.3c-24,0-40.1,15.9-40.1,37.6c0,21.7,16.1,37,39.3,37
		c18.4,0,32.2-7.7,38-24.2h-18.6c-3.7,6.5-10.9,8.8-19.4,8.8c-10,0-18.8-5.4-21.3-15.5h60.2C323.5,74.7,323.8,72.4,323.8,69.1
		 M262.6,64.1c2.7-11.3,11.9-15.5,22.1-15.5c11.5,0,19.6,6.1,20.9,15.5H262.6z"/>
	<path class="st0" d="M364,108.4c16.5,0,32.6-6.9,32.6-23c0-14.4-11.5-19.2-25.7-21.3l-12.7-1.9c-4.8-0.8-10.3-1.7-10.3-6.7
		c0-5.7,8.4-6.9,14.6-6.9c6.5,0,15.9,2.1,15.9,8.2l0.2,0.6h16.9v-0.8c0-15.3-15.7-22.8-33-22.8c-17.1,0-32.2,5.9-32.2,22.1
		c0,13.8,11.9,19.2,25.5,21.3l12.3,1.9c5.2,0.8,10.9,1.9,10.9,7.1c0,5.9-9,6.9-15.1,6.9c-7.3,0-17.4-1.4-17.4-8v-0.8h-17.3v0.8
		C329.1,101.9,345.6,108.4,364,108.4"/>
	<path class="st0" d="M2.9,84.7c0,16.7,14.4,23.8,28.6,23.8c11.5,0,21.1-4.4,26.1-12.3h1l1.9,10.7h13.6V61.2
		c0-17.8-13.2-25.9-31.6-25.9H12.1v15.3h31.3c8.8,0,13.8,3.7,13.8,11.5H31.5C14.6,62.2,2.9,69.5,2.9,84.7 M57.2,76.8
		c0,9.2-9.4,16.9-23.4,16.9c-9.2,0-14-3.7-14-9.2c0-5.9,4.6-8.8,11.5-8.8h25.9L57.2,76.8L57.2,76.8z"/>
	<path class="st0" d="M507.7,49.8c-2.6,10.6-6.4,20.5-11.2,29.4c-5.7,10.7-13,20.1-21.5,27.9c-0.4,0.4-1,0.1-1-0.5
		c0-5.6,0-26.7,0-31.6c0-0.7,0.3-1.2,0.8-1.7c6-5.3,12.1-12.1,17.4-19.4c5.3-7.4,9.6-15,12.4-22.1c0.2-0.4-0.4-0.7-0.6-0.3
		c-4.1,7.8-10.1,16.9-18.7,25.6C472.6,70,457.5,78.7,440.1,83c-0.5,0.1-0.9-0.2-0.9-0.7c0-4.3,0-22.2,0-26c0-0.4,0.3-0.8,0.7-0.9
		c16.2-3.2,30.6-8.4,42.7-15.5c7.3-4.3,12.7-8.6,16.5-12.1c0.3-0.3-0.1-0.8-0.5-0.5c-9.2,6.6-23.8,14.7-43,17.9
		c-13.7,2.3-29.6,2.1-47.7-2.9c-0.6-0.2-1.1-0.8-1.1-1.4l-0.1-34.4c0-0.7,0.8-1.1,1.4-0.7c6.8,4.7,16.9,11.7,28.9,15.1
		c11,3.2,22.2,4.4,33.4,3.8c13.6-0.7,27.2-4.3,40.5-10.6c0.1-0.1,0.3-0.1,0.4-0.1c0.3,0,0.5,0.3,0.5,0.6
		C511.9,14.6,512.7,29.7,507.7,49.8"/>
</g>
</svg>
